<?xml version="1.0" standalone="no"?>
<!DOCTYPE svg PUBLIC "-//W3C//DTD SVG 1.1//EN" "http://www.w3.org/Graphics/SVG/1.1/DTD/svg11.dtd" >
<svg xmlns="http://www.w3.org/2000/svg">
<metadata>
This is a custom SVG font generated by IcoMoon.
<iconset grid="20"></iconset>
</metadata>
<defs>
<font id="healthkick" horiz-adv-x="640" >
<font-face units-per-em="640" ascent="608" descent="-32" />
<missing-glyph horiz-adv-x="640" />
<glyph class="hidden" unicode="&#xf000;" d="M0,608L 640 -32L0 -32 z" horiz-adv-x="0" />
<glyph unicode="&#x21;" d="M 610.989,486.461c-21.24,6.067-43.381-6.231-49.45-27.473L 558.4,448L 185.311,448 l-5.62,44.961
		C 177.189,512.979, 160.173,528, 140,528L 40,528 C 17.909,528,0,510.091,0,488s 17.909-40, 40-40l 64.689,0 l 35.62-284.961
		C 142.811,143.022, 159.827,128, 180,128l 340,0 c 17.859,0, 33.555,11.84, 38.461,29.011l 80,280
		C 644.53,458.252, 632.23,480.392, 610.989,486.461z M 320,288l0,40 l 79.998,0 l0-40 L 320,288 z M 399.998,248l0-40 L 320,208 l0,40 L 399.998,248 z M 320,368l0,40 
		l 79.998,0 l0-40 L 320,368 z M 190.311,408L 280,408 l0-40 l-84.689,0 L 190.311,408z M 200.311,328L 280,328 l0-40 l-74.689,0 L 200.311,328z M 210.311,248L 280,248 l0-40 l-64.689,0 
		L 210.311,248z M 489.828,208l-49.83,0 l0,40 l 61.259,0 L 489.828,208z M 512.685,288l-72.688,0 l0,40 l 84.116,0 L 512.685,288z M 535.543,368l-95.545,0 
		l0,40 l 106.974,0 L 535.543,368zM 160,28A60,60 2700 1 1 280,28A60,60 2700 1 1 160,28zM 400,28A60,60 2700 1 1 520,28A60,60 2700 1 1 400,28z" data-tags="cart, ecommerce, shopping, products, purchase, buy, store" />
<glyph unicode="&#x22;" d="M0,288c0-176.72, 143.28-320, 320-320c 176.74,0, 320,143.28, 320,320c0,176.74-143.26,320-320,320C 143.28,608,0,464.74,0,288z M 480,288
	l-160-160l0,120 L 160,248 l0,80 l 160,0 L 320,448 L 480,288z" data-tags="arrow-right-alt1, right, next" />
<glyph unicode="&#x23;" d="M 274.016,463.488c 13.376-13.056, 144.064-150.272, 144.064-150.272C 425.248,306.24, 428.8,297.12, 428.8,288s-3.552-18.24-10.72-25.216
	c0,0-130.688-137.216-144.064-150.24c-13.376-13.056-37.408-13.952-51.712,0c-14.272,13.92-15.392,33.344,0,50.4L 342.24,288L 222.336,413.056
	c-15.392,17.088-14.272,36.512,0,50.432C 236.608,477.408, 260.672,476.544, 274.016,463.488z" data-tags="arrow-right, right, next" />
<glyph unicode="&#x24;" d="M 628.75,182.375l-203.125-203.125q-11.25-11.25 -27.813-11.25t-27.813,11.25l-358.75,358.75q-11.25,11.25 -11.25,49.375l0,180 q0,16.875 11.875,28.438t 28.125,11.563l 180,0 q 38.75,0 50-11.25l 358.75-358.125q 11.25-11.875 11.25-28.125t-11.25-27.5zM 160,528q-33.125,0 -56.563-23.438t-23.438-56.563t 23.438-56.563t 56.563-23.438t 56.563,23.438t 23.438,56.563t-23.438,56.563t-56.563,23.438z" data-tags="price" />
<glyph unicode="&#x27;" d="M 320-32q-65,0 -124.375,25.313t-102.188,68.125t-68.125,102.188t-25.313,124.375t 25.313,124.375t 68.125,102.188t 102.188,68.125t 124.375,25.313t 124.375-25.313t 102.188-68.125t 68.125-102.188t 25.313-124.375t-25.313-124.375t-68.125-102.188t-102.188-68.125t-124.375-25.313zM 480,328l-120,0 l0,120 q0,16.25 -11.875,28.125t-28.438,11.875t-28.125-11.875t-11.563-28.125l0-120 l-120,0 
q-16.875,0 -28.438-11.875t-11.563-28.438t 11.563-28.125t 28.438-11.563l 120,0 l0-120 q0-16.875 11.563-28.438t 28.125-11.563t 28.438,11.563t 11.875,28.438l0,120 l 120,0 q 16.875,0 28.438,11.563t 11.563,28.125t-11.875,28.438t-28.125,11.875z" data-tags="circleadd" />
<glyph unicode="&#x28;" d="M 320-32q-65,0 -124.375,25.313t-102.188,68.125t-68.125,102.188t-25.313,124.375t 25.313,124.375t 68.125,102.188t 102.188,68.125t 124.375,25.313t 124.375-25.313t 102.188-68.125t 68.125-102.188t 25.313-124.375t-25.313-124.375t-68.125-102.188t-102.188-68.125t-124.375-25.313zM 467.5,377.375q 12.5,11.875 12.5,29.375t-12.188,29.688t-29.688,12.188t-29.375-12.5l-89.375-88.75l-88.75,88.75
q-11.875,12.5 -29.375,12.5t-29.688-12.188t-12.188-29.688t 12.5-29.375l 88.75-89.375l-88.75-88.75q-12.5-11.875 -12.5-29.375t 12.188-29.688t 29.688-12.188t 29.375,12.5l 88.75,88.75l 89.375-88.75q 11.875-12.5 29.375-12.5t 29.688,12.188t 12.188,29.688t-12.5,29.375l-88.75,88.75z" data-tags="circledelete" />
<glyph unicode="&#x29;" d="M 320-32q-65,0 -124.375,25.313t-102.188,68.125t-68.125,102.188t-25.313,124.375t 25.313,124.375t 68.125,102.188t 102.188,68.125t 124.375,25.313t 124.375-25.313t 102.188-68.125t 68.125-102.188t 25.313-124.375t-25.313-124.375t-68.125-102.188t-102.188-68.125t-124.375-25.313zM 507.813,396.437q-12.188,12.188 -29.688,12.188t-29.375-12.5l-169.375-168.75l-88.75,88.75
q-11.875,12.5 -29.375,12.5t-29.688-12.188t-12.188-29.688t 12.5-29.375l 116.875-116.875q 12.5-13.125 31.25-12.5q 18.125-0.625 30.625,12.5l 196.875,196.875q 12.5,11.875 12.5,29.375t-12.188,29.688z" data-tags="circleselect" />
<glyph unicode="&#x2a;" d="M 627.5,408l-11.25,0 q-24.375,60 -70.313,105.938t-105.938,69.688l0,11.875 q 9.375,12.5 40,12.5q 66.25,0 113.125-46.875t 46.875-113.125q0-30.625 -12.5-40zM 600,248q0-96.25 -59.375-172.5l 59.375-81.875l-25.625-25.625l-81.875,59.375q-76.25-59.375 -172.5-59.375t-172.5,59.375l-81.875-59.375l-25.625,25.625l 59.375,81.875q-59.375,76.25 -59.375,172.5q0,56.875 22.188,108.75t 59.688,89.375t 89.375,59.688
t 108.75,22.188t 108.75-22.188t 89.375-59.688t 59.688-89.375t 22.188-108.75zM 320,448q-54.375,0 -100.313-26.875t-72.813-72.813t-26.875-100.313t 26.875-100.313t 72.813-72.813t 100.313-26.875t 100.313,26.875t 72.813,72.813t 26.875,100.313t-26.875,100.313t-72.813,72.813t-100.313,26.875zM 420,328l-61.25-89.375q-3.125-13.125 -14.063-21.875t-24.688-8.75t-24.375,8.125
t-13.75,21.25l-81.875,110.625l0,20 l 20,0 l 100.625-74.375l 79.375,54.375l0,0 l 20,0 l0-20 l0,0 zM 23.75,408l-11.25,0 q-12.5,9.375 -12.5,40q0,66.25 46.875,113.125t 113.125,46.875q 30.625,0 40-12.5l0-11.875 q-60-24.375 -105.938-70t-70.313-105.625z" data-tags="alarm" />
<glyph unicode="&#x2b;" d="M 480.625,28q-60.625-60 -120.625-60q 35,33.75 47.5,68.438t 12.5,91.563q0,26.25 -22.188,75.938t-44.688,87.813t-22.5,36.25q-1.25-6.25 -3.438-16.25t-11.25-38.125t-20.313-52.5t-31.563-51.25t-44.063-41.875q-19.375-12.5 -20.625-41.563t 10.625-60t 30-58.438q-33.75,0 -110,72.5q-25.625,23.75 -37.813,53.75t-12.188,53.75q0,40 22.188,83.438t 59.688,76.563
q 31.875,28.75 51.563,60.625t 25.313,60.313t 4.688,55.938t-8.438,49.375t-15,38.75t-13.75,25.625l-6.25,9.375q 8.125-3.125 21.563-9.375t 51.875-27.5t 72.813-44.375t 75-59.688t 66.875-74.688q 36.25-52.5 55.313-114.063t 17.188-110.313q-1.25-25 -18.125-56.25t-32.5-50.313t-29.375-33.438z" data-tags="fire" />
<glyph unicode="&#x2c;" d="M 640,208l-240,0 l0-240 L 240-32 l0,240 L0,208 L0,368 l 240,0 L 240,608 l 160,0 l0-240 l 240,0 L 640,208 z" data-tags="plus, add, sum" />
<glyph unicode="&#x2d;" d="M0,368l 640,0 l0-160 L0,208 L0,368 z" data-tags="minus, subtract, remove" />
<glyph unicode="&#x2e;" d="M 520,128L 360,128 l-280-160l 80,160L 120,128 c-66.28,0-120,58.6-120,130.88L0,477.12 C0,549.4, 53.72,608, 120,608l 400,0 
	c 66.24,0, 120-58.6, 120-130.88l0-218.2 C 640,186.6, 586.24,128, 520,128z" data-tags="comment, chat, talk, bubble" />
<glyph unicode="&#x2f;" d="M 320,208c0,0-213.333,0-293.333-186.667c0,0, 133.6-53.333, 293.333-53.333s 293.333,53.333, 293.333,53.333C 533.333,208, 320,208, 320,208z M 320,234.667c 80,0, 133.333,80, 133.333,213.333s-133.333,133.333-133.333,133.333S 186.667,581.333, 186.667,448S 240,234.667, 320,234.667z" data-tags="user, profile, avatar, member" />
<glyph unicode="&#x30;" d="M 400,224.987c0,0-164.853,0-226.667-144.267c0,0, 103.227-41.2, 226.667-41.2s 226.667,41.2, 226.667,41.2C 564.853,224.987, 400,224.987, 400,224.987z
			 M 400,245.547c 61.813,0, 103.013,61.813, 103.013,164.88S 400,513.467, 400,513.467s-103.013,0-103.013-103.040S 338.187,245.547, 400,245.547z M 200,315.867
			c 20.32,0, 37.76,8.427, 51.6,23.6C 246.48,360.187, 243.653,383.867, 243.653,410.427c0,39.6, 15.227,63.893, 33.973,78.88
			C 257.2,536.373, 200,536.48, 200,536.48s-84.853,0-84.853-84.853C 115.147,366.773, 149.093,315.867, 200,315.867z M 280,249.36l-2.88,33.547
			C 235.573,298.8, 200,298.907, 200,298.907s-135.76,0-186.667-118.8c0,0, 65.627-26.16, 150.533-32.533C 237.813,224.987, 280,249.36, 280,249.36z" data-tags="users, group, team, people, members" />
<glyph unicode="&#x31;" d="M 365.984,463.488c-13.376-13.056-144.064-150.272-144.064-150.272C 214.784,306.24, 211.232,297.12, 211.232,288s 3.552-18.24, 10.688-25.216
	c0,0, 130.688-137.216, 144.064-150.24c 13.376-13.056, 37.44-13.952, 51.712,0c 14.24,13.92, 15.36,33.344-0.032,50.4L 297.76,288l 119.904,125.056
	c 15.392,17.088, 14.272,36.512, 0.032,50.432C 403.392,477.408, 379.328,476.544, 365.984,463.488z" data-tags="arrow-left, left, previous" />
<glyph unicode="&#x32;" d="M 495.456,333.984c-13.024-13.376-150.24-144.096-150.24-144.096C 338.24,182.752, 329.12,179.2, 320,179.2c-9.152,0-18.272,3.552-25.216,10.688
	c0,0-137.216,130.72-150.272,144.096c-13.024,13.376-13.92,37.408,0,51.712c 13.952,14.272, 33.376,15.392, 50.432,0L 320,265.76l 125.024,119.904
	c 17.088,15.392, 36.544,14.272, 50.432,0C 509.408,371.392, 508.544,347.328, 495.456,333.984z" data-tags="arrow-down, down, bottom" />
<glyph unicode="&#x33;" d="M 495.456,242.016c-13.024,13.376-150.24,144.064-150.24,144.064C 338.24,393.216, 329.12,396.8, 320,396.8c-9.152,0-18.272-3.584-25.216-10.72
	c0,0-137.216-130.688-150.272-144.064c-13.024-13.376-13.92-37.44,0-51.712c 13.952-14.24, 33.376-15.392, 50.432,0L 320,310.208l 125.024-119.904
	c 17.088-15.392, 36.544-14.24, 50.432,0C 509.408,204.608, 508.544,228.672, 495.456,242.016z" data-tags="arrow-up, up, top" />
<glyph unicode="&#x34;" d="M 580,528L 60,528 C 27,528,0,501,0,468l0-360 c0-33, 27-60, 60-60l 520,0 c 33,0, 60,27, 60,60L 640,468 C 640,501, 613,528, 580,528z M 60,488
		l 520,0 c 10.841,0, 20-9.159, 20-20l0-60 L 40,408 l0,60 C 40,478.841, 49.159,488, 60,488z M 580,88L 60,88 c-10.841,0-20,9.159-20,20L 40,288 l 560,0 l0-180 
		C 600,97.159, 590.841,88, 580,88zM 80,208L 120,208L 120,128L 80,128zM 160,208L 200,208L 200,128L 160,128zM 240,208L 280,208L 280,128L 240,128z" data-tags="credit, card, purchase, payment, ecommerce" />
<glyph unicode="&#x35;" d="M 389.266,168.79c-13.819,2.199-14.134,40.196-14.134,40.196s 40.605,40.198, 49.455,94.251
	c 23.806,0, 38.511,57.466, 14.701,77.685C 440.283,402.206, 469.889,548, 320,548c-149.889,0-120.281-145.794-119.29-167.078
	c-23.809-20.219-9.106-77.685, 14.701-77.685c 8.849-54.054, 49.455-94.251, 49.455-94.251s-0.315-37.998-14.134-40.196
	C 206.22,161.707, 40,88.394, 40,8l 280,0 l 280,0 C 600,88.394, 433.78,161.707, 389.266,168.79z" data-tags="user, profile, avatar, person, talk, member" />
<glyph unicode="&#x36;" d="M 459.371,104.641c-11.845,1.867-12.115,34.159-12.115,34.159s 34.805,34.16, 42.39,80.095
	c 20.407,0, 33.009,48.836, 12.603,66.017c 0.851,18.088, 26.23,141.985-102.249,141.985c-128.477,0-103.099-123.897-102.249-141.985
	c-20.409-17.181-7.805-66.017, 12.601-66.017c 7.584-45.935, 42.391-80.095, 42.391-80.095s-0.27-32.291-12.115-34.159
	C 302.474,98.621, 160,36.319, 160-32l 240,0 l 240,0 C 640,36.319, 497.526,98.621, 459.371,104.641zM 215.034,93.744c 27.559,16.969, 61.016,32.693, 88.461,42.14c-9.845,14.020-20.809,33.085-27.706,55.664
	c-9.629,7.854-17.465,19.082-22.499,32.876c-5.041,13.815-6.951,29.282-5.38,43.552c 1.127,10.245, 4.049,19.791, 8.531,28.18
	c-2.719,29.116-4.634,86.271, 32.78,127.957c 14.509,16.166, 32.847,27.788, 54.813,34.804C 340.112,499.393, 319.559,546.899, 240,546.899
	c-128.477,0-103.099-123.897-102.249-141.985c-20.409-17.181-7.805-66.017, 12.601-66.017c 7.584-45.935, 42.391-80.095, 42.391-80.095
	s-0.27-32.291-12.115-34.159C 142.474,218.621,0,156.319,0,88l 205.998,0 C 208.941,89.921, 211.939,91.837, 215.034,93.744z" data-tags="users, people, group, team, members, community" />
<glyph unicode="&#x37;" d="M 80,48 L 640,48 L 640-32 L 0-32 L 0,608 L 80,608 ZM 180,88 C 146.862,88 120,114.863 120,148 C 120,181.137 146.862,208 180,208 C 181.767,208 183.514,207.907 185.242,207.759 L 249.737,315.25 C 243.588,324.669 240,335.914 240,348.001 C 240,381.139 266.863,408.001 300,408.001 C 333.137,408.001 360,381.139 360,348.001 C 360,335.913 356.413,324.669 350.262,315.25 L 414.757,207.759 C 416.486,207.907 418.233,208 420,208 C 421.335,208 422.655,207.941 423.969,207.856 L 530.441,394.183 C 523.856,403.812 520,415.455 520,428.001 C 520,461.139 546.862,488.001 580,488.001 C 613.138,488.001 640,461.139 640,428.001 C 640,394.864 613.138,368.001 580,368.001 C 578.663,368.001 577.345,368.060 576.031,368.146 L 469.559,181.819 C 476.144,172.19 480,160.546 480,148 C 480,114.863 453.137,88 420,88 C 386.863,88 360,114.863 360,148 C 360,160.088 363.587,171.332 369.736,180.751 L 305.243,288.241 C 303.514,288.093 301.767,288 300,288 C 298.233,288 296.486,288.091 294.757,288.241 L 230.263,180.75 C 236.412,171.332 240,160.088 240,148 C 240,114.863 213.137,88 180,88 Z" data-tags="stats, graph, plot, statistics, chart" />
<glyph unicode="&#x38;" d="M 280,111.431L 151.716,259.715L 188.284,296.284L 280,224.569L 451.715,376.284L 488.285,339.716 	zM 519.858,528c 0.049-0.041, 0.101-0.094, 0.143-0.144l0-479.714 c-0.041-0.049-0.094-0.101-0.143-0.143L 120.143,48 
	c-0.050,0.041-0.101,0.094-0.143,0.143L 120,527.857 c 0.041,0.050, 0.094,0.101, 0.144,0.143L 40,528 l0-480 c0-44, 36-80, 80-80l 400,0 
	c 44,0, 80,36, 80,80L 600,528 L 519.858,528 z M 400,528L 400,568 c0,22.091-17.909,40-40,40l-80,0 c-22.091,0-40-17.909-40-40l0-40 l-80,0 l0-80 l 320,0 L 480,528 L 400,528 z
	 M 360,528l-80,0 L 280,568 l 80,0 L 360,528 z" data-tags="signup, checkmark, board, agreement, register" />
<glyph unicode="&#x39;" d="M 640,359.844l-221.112,32.13L 320,592.338l-98.885-200.364L0,359.844l 160-155.961L 122.23-16.338L 320,87.636l 197.77-103.974
	l-37.771,220.22L 640,359.844z M 320,137.064l-139.664-73.425l 26.672,155.519l-112.991,110.139l 156.15,22.69L 320,493.484l 69.835-141.498
	l 156.148-22.69l-112.993-110.139l 26.674-155.519L 320,137.064z" data-tags="star, rate, favorite, bookmark" />
<glyph unicode="&#x3a;" d="M 640,359.844l-221.112,32.13L 320,592.338l-98.885-200.364L0,359.844l 160-155.961L 122.23-16.338L 320,87.636l 197.77-103.974
	l-37.771,220.22L 640,359.844z M 320,137.064l-0.589-0.31L 320,493.484l 69.835-141.498l 156.148-22.69l-112.993-110.139l 26.674-155.519
	L 320,137.064z" data-tags="star, rate, half" />
<glyph unicode="&#x3b;" d="M 640,359.844L 418.888,391.974L 320,592.338l-98.885-200.364L0,359.844l 160-155.961L 122.23-16.338L 320,87.636l 197.77-103.974
	l-37.771,220.22L 640,359.844z" data-tags="star, rate, favorite, bookmark" />
<glyph unicode="&#x3c;" d="M 640,384.153 C 640,330.176 616.739,281.634 579.694,248 L 580,248 L 380,48 C 360,28 340,8 320,8 C 300,8 280,28 260,48 L 60,248 L 60.306,248 C 23.261,281.634 0,330.176 0,384.153 C 0,485.689 82.311,568 183.847,568 C 237.824,568 286.366,544.739 320,507.694 C 353.634,544.739 402.176,568 456.153,568 C 557.688,568 640,485.689 640,384.153 Z" data-tags="heart, like, love, favorite" />
<glyph unicode="&#x3d;" d="M 640,384.153C 640,485.689, 557.688,568, 456.153,568C 402.176,568, 353.634,544.739, 320,507.694C 286.366,544.739, 237.824,568, 183.847,568
	C 82.311,568,0,485.689,0,384.153C0,330.176, 23.261,281.634, 60.306,248L 60,248 l 200-200c 20-20, 40-40, 60-40s 40,20, 60,40l 200,200l-0.306,0 
	C 616.739,281.634, 640,330.176, 640,384.153z M 525.918,307.23L 323.431,104.569c-1.049-1.049-2.208-2.208-3.431-3.425
	c-1.225,1.219-2.384,2.376-3.431,3.425L 114.083,307.229C 92.104,327.184, 80,354.502, 80,384.153C 80,441.414, 126.586,488, 183.847,488
	c 29.65,0, 56.969-12.104, 76.922-34.082L 320,388.68l 59.23,65.236C 399.185,475.896, 426.502,488, 456.153,488
	C 513.414,488, 560,441.414, 560,384.153C 560,354.502, 547.895,327.184, 525.918,307.23z" data-tags="heart, like, love, favorite" />
<glyph unicode="&#x3e;" d="M 320,608C 143.269,608,0,464.731,0,288s 143.269-320, 320-320s 320,143.269, 320,320S 496.731,608, 320,608z M 280,488l 80,0 l0-80 l-80,0 L 280,488 z
	 M 400,88L 240,88 l0,40 l 40,0 L 280,288 l-40,0 l0,40 l 120,0 l0-200 l 40,0 L 400,88 z" data-tags="info, information" />
<glyph unicode="&#x3f;" d="M 320,608C 143.269,608,0,464.731,0,288s 143.269-320, 320-320s 320,143.269, 320,320S 496.731,608, 320,608z M 320,28
		c-143.594,0-260,116.406-260,260S 176.406,548, 320,548s 260-116.406, 260-260S 463.594,28, 320,28zM 280,448L 360,448L 360,368L 280,368zM 400,128L 240,128L 240,168L 280,168L 280,288L 240,288L 240,328L 360,328L 360,168L 400,168 z" data-tags="info, information" />
<glyph unicode="&#x40;" d="M 533.34,608L 106.677,608 C 48.008,608,0,559.991,0,501.32l0-426.641 C0,15.967, 48.008-32, 106.677-32l 426.662,0.001
	c 58.672,0, 106.66,47.966, 106.66,106.68L 640,501.32 C 640,559.991, 592.011,608, 533.34,608z M 544.12,288L 440,288 l0-280 l-120,0 L 320,288 l-57.829,0 l0,91.602 L 320,379.603 
	l0,59.491 C 320,519.933, 354.87,568, 449.919,568l 109.528,0 l0-99.106 l-89.456,0 c-26.551,0.044-29.845-13.845-29.845-39.695L 440,379.603l 120,0 
	L 544.12,288z" data-tags="facebook, social" />
<glyph unicode="&#x41;" d="M 533.339,608L 106.679,608 C 48.008,608,0,559.994,0,501.319l0-426.639 C0,15.969, 48.008-32, 106.679-32l 426.66,0 
	C 592.011-32, 640,15.969, 640,74.681L 640,501.319 C 640,559.994, 592.011,608, 533.339,608z M 523.783,394.354
	c 0.205-4.589, 0.306-9.205, 0.306-13.842c0-141.384-105.76-304.418-299.161-304.418c-59.378,0-114.646,17.718-161.179,48.074
	c 8.225-0.993, 16.595-1.496, 25.081-1.496c 49.264,0, 94.599,17.106, 130.584,45.801c-46.010,0.862-84.84,31.797-98.221,74.301
	c 6.421-1.25, 13.008-1.921, 19.782-1.921c 9.59,0, 18.879,1.31, 27.7,3.755c-48.1,9.832-84.344,53.072-84.344,104.91
	c0,0.451,0,0.899, 0.010,1.345c 14.175-8.012, 30.39-12.825, 47.625-13.381c-28.214,19.186-46.776,51.932-46.776,89.055
	c0,19.606, 5.184,37.986, 14.236,53.786c 51.859-64.731, 129.335-107.325, 216.721-111.789c-1.794,7.832-2.724,15.998-2.724,24.384
	c0,59.086, 47.079,106.988, 105.144,106.988c 30.244,0, 57.574-12.991, 76.751-33.786c 23.95,4.798, 46.453,13.7, 66.77,25.964
	c-7.851-24.985-24.521-45.951-46.229-59.194c 21.266,2.586, 41.532,8.338, 60.388,16.846C 562.156,428.282, 544.329,409.437, 523.783,394.354
	z" data-tags="twitter, tweet, social" />
<glyph unicode="&#x42;" d="M 532.5,608L 107.5,608 C 48.375,608,0,559.625,0,500.5l0-425 c0-59.125, 48.375-107.5, 107.5-107.5l 425,0 c 59.125,0, 107.5,48.375, 107.5,107.5L 640,500.5 C 640,559.625, 591.625,608, 532.5,608z M 240,88l-80,0 
	L 160,368 l 80,0 L 240,88 z M 200,408c-22.091,0-40,17.909-40,40s 17.909,40, 40,40s 40-17.909, 40-40S 222.091,408, 200,408z M 520,88l-80,0 L 440,248 
	c0,22.091-17.909,40-40,40s-40-17.909-40-40l0-160 l-80,0 L 280,368 l 80,0 l0-49.67 C 376.499,340.995, 401.72,368, 430,368c 49.706,0, 90-44.771, 90-100
	L 520,88 z" data-tags="linkedin, social" />
<glyph unicode="&#x43;" d="M 533.344,608L 106.655,608 C 47.749,608,0,560.237,0,501.321l0-426.644 C0,15.761, 47.749-32, 106.655-32l 426.689,0 
	C 592.25-32, 640,15.761, 640,74.678L 640,501.321 C 640,560.237, 592.25,608, 533.344,608z M 351.028,180.426
	c-29.075,2.259-41.276,16.66-64.065,30.505c-12.537-65.736-27.851-128.761-73.211-161.68
	c-14.002,99.355, 20.559,173.977, 36.606,253.196c-27.366,46.066, 3.294,138.771, 61.013,115.921
	c 71.016-28.093-61.5-171.255, 27.458-189.135c 92.888-18.668, 130.805,161.161, 73.214,219.64
	c-83.224,84.441-242.249,1.925-222.694-118.972c 4.759-29.558, 35.295-38.524, 12.203-79.314c-53.263,11.807-69.156,53.814-67.11,109.82
	c 3.292,91.671, 82.365,155.852, 161.679,164.729c 100.303,11.227, 194.441-36.818, 207.441-131.173
	C 518.191,287.471, 458.279,172.134, 351.028,180.426z" data-tags="pinterest, social" />
<glyph unicode="&#x44;" d="M 500.625,368l 60-64.375l-84.375-26.25l 20-85.625l-79.375,18.125l 63.75-203.125q0-20.625 -17.5-32.5l-32.5,32.5l-38.75-38.75q-13.75,3.125 -22.5,14.063t-8.75,24.688l-40.625,128.75l-40-128.75q0-13.75 -8.75-24.688t-22.5-14.063l-38.75,38.75l-32.5-32.5q-17.5,11.875 -17.5,32.5l 63.75,203.125l-79.375-18.125l 20,85.625l-84.375,26.25l 60,64.375l-60,64.375l 84.375,25.625l-20,85.625l 85.625-20
l 25.625,84.375l 64.375-60l 64.375,60l 26.25-84.375l 85.625,20l-20-85.625l 84.375-25.625zM 320.313,488q-49.688,0 -85-35.313t-35.313-85t 35.313-85t 85-35.313t 85,35.313t 35.313,85t-35.313,85t-85,35.313z" data-tags="certificate" />
<glyph unicode="&#x46;" d="M 320,247.375l-280.625,280.625l 0.625,0 l 560,0 l 0.625,0 zM 4.375,69.875q-4.375,8.75 -4.375,18.125l0,400 q0,9.375 4.375,18.125l 218.75-218.125zM 295.625,214.875q 3.75-3.125 9.688-5t 10.313-1.875l 4.375,0 q 16.25-0.625 24.375,6.875l 44.375,45l 211.875-211.875l-0.625,0 l-560,0 l-0.625,0 l 211.875,211.875zM 635.625,506.125q 4.375-8.75 4.375-18.125l0-400 q0-9.375 -4.375-18.125l-218.75,218.125z" data-tags="email" />
<glyph unicode="&#x47;" d="M 320,48q-41.25,0 -83.75,10q-21.25-25 -43.438-43.438t-37.5-27.188t-29.688-13.438t-18.75-5.313t-6.875-0.625l0,0 q 16.25,35.625 18.75,77.813t-8.75,70.938q-51.25,39.375 -80.625,94.375t-29.375,116.875q0,56.875 25.313,108.75t 68.125,89.375t 102.188,59.688t 124.375,22.188t 124.375-22.188t 102.188-59.688t 68.125-89.375t 25.313-108.75t-25.313-108.75t-68.125-89.375t-102.188-59.688
t-124.375-22.188zM 280,148q0-8.125 5.625-14.063t 14.375-5.938l 40,0 q 8.125,0 14.063,5.938t 5.938,14.063l0,40 q0,8.75 -5.938,14.375t-14.063,5.625l-40,0 q-8.75,0 -14.375-5.625t-5.625-14.375l0-40 zM 320,528q-53.125,0 -95-23.438t-57.5-60.313l 72.5-36.25q0,16.875 23.438,28.438t 56.563,11.563t 56.563-11.563t 23.438-28.125t-23.438-28.438t-56.563-11.875q-16.875,0 -28.438-11.563
t-11.563-28.438l0-60 q0-8.125 5.625-14.063t 14.375-5.938l 40,0 q 8.125,0 14.063,5.938t 5.938,14.063l0,24.375 q 51.875,10 85.938,42.188t 34.063,73.438q0,50 -46.875,85t-113.125,35z" data-tags="uniF013" />
<glyph unicode="&#x48;" d="M 620.164,63.378L 468.569,192.311c-15.671,14.104-32.431,20.579-45.97,19.954C 458.384,254.183, 480,308.564, 480,368
	C 480,500.549, 372.549,608, 240,608C 107.453,608,0,500.549,0,368c0-132.549, 107.451-240, 240-240c 59.436,0, 113.817,21.616, 155.735,57.402
	c-0.625-13.539, 5.85-30.299, 19.954-45.97l 128.934-151.595c 22.076-24.529, 58.139-26.596, 80.138-4.598S 644.692,41.301, 620.164,63.378z
	 M 240,208c-88.365,0-160,71.635-160,160S 151.635,528, 240,528s 160-71.635, 160-160S 328.366,208, 240,208z" data-tags="search, magnifier, lookup, find" />
<glyph unicode="&#x25;" d="M 617.312,595.008c-3.456,10.080-14.368,15.392-24.352,11.904s-15.232-14.528-11.744-24.64c 29.44-85.44-28.992-149.248-73.504-183.392
		l-18.016,26.048c-6.016,8.704-19.584,15.968-30.080,16.128l-100.96-0.48c-10.496,0.16-26.112-4.704-34.752-10.784l-297.472-210.816
		c-14.4-10.208-17.952-30.304-7.84-44.896l 135.232-195.424c 10.080-14.592, 26.304-12.832, 40.704-2.656l 297.472,210.848
		c 8.64,6.080, 18.464,19.328, 21.952,29.376l 31.616,100.672c 3.424,10.048, 1.344,25.408-4.672,34.112l-11.008,15.872
		C 589.696,413.12, 651.776,494.944, 617.312,595.008z M 478.912,295.616c-23.072-16.352-54.848-10.656-71.008,12.672
		c-16.128,23.328-10.528,55.488, 12.544,71.84c 18.304,12.992, 42.080,12.032, 59.2-0.576c-8.64-5.248-14.528-8.256-15.648-8.8
		c-9.536-4.544-13.632-16.064-9.12-25.728c 3.264-7.008, 10.112-11.136, 17.312-11.136c 2.72,0, 5.504,0.608, 8.128,1.856
		c 6.112,2.912, 12.736,6.464, 19.616,10.592C 503.008,327.36, 495.52,307.392, 478.912,295.616z" data-tags="tag, price" />
<glyph unicode="&#x26;" d="M 560,428l-39.16,0 L 520.84,486.76 L 440,488l 0.42-60L 197.5,428 l 1.66,60L 120,486.76l0-60 L 80,428
			c-22.080,0-40-17.92-40-40l0-280 c0-22.080, 17.92-40, 40-40l 480,0 c 22.080,0, 40,17.92, 40,40L 600,388 C 600,410.080, 582.080,428, 560,428z M 460,468l 40,0 l0-80 l-40,0 L 460,468 z M 200,331.76
			c 24.16,0, 43.76-25.74, 43.76-57.5S 224.16,216.76, 200,216.76s-43.76,25.74-43.76,57.5S 175.84,331.76, 200,331.76z M 140,468l 40,0 l0-80 L 140,388 L 140,468 z
			 M 113.34,149.040c0,0, 4.74,38.040, 15.52,45.22c 10.76,7.18, 41.8,11.96, 41.8,11.96s 20.12-21.5, 28.68-21.5
			c 8.54,0, 28.66,21.5, 28.66,21.5s 31.040-4.76, 41.82-11.96c 12.66-8.44, 15.82-45.22, 15.82-45.22L 113.34,149.040 z M 520,168l-180,0 l0,20 l 180,0 L 520,168 z M 520,208
			l-180,0 l0,20 l 180,0 L 520,208 z M 520,248l-180,0 l0,20 l 180,0 L 520,248 z M 520,288l-180,0 l0,20 l 180,0 L 520,288 z" data-tags="profile, card, id, vcard" />
<glyph unicode="&#x45;" d="M 625,479.24l-100,80C 517.9,564.92, 509.060,568, 500,568L 140,568 
		C 130.92,568, 122.1,564.92, 115,559.24l-100-80C 1.92,468.76-3.24,451.24, 2.060,435.34l 40-120c 3.94-11.82, 13.18-21.14, 24.98-25.18
		C 71.24,288.72, 75.64,288, 80,288c 6.96,0, 13.86,1.82, 20,5.36L 100,48 c0-22.080, 17.92-40, 40-40l 360,0 c 22.080,0, 40,17.92, 40,40L 540,293.36 
		C 546.14,289.82, 553.040,288, 560,288c 4.38,0, 8.76,0.72, 12.96,2.16c 11.8,4.040, 21.020,13.36, 24.96,25.18l 40,120
		C 643.24,451.24, 638.080,468.76, 625,479.24z M 395.080,528C 384.020,504.78, 354.72,488, 320,488c-34.72,0-64.040,16.78-75.080,40L 395.080,528 z M 560,328l-60,40
		l0-320 L 140,48 L 140,368 l-60-40L 40,448l 100,80l 83.54,0 C 234.68,493.56, 273.46,468, 320,468c 46.52,0, 85.32,25.56, 96.44,60L 500,528 l 100-80L 560,328z" data-tags="t-shirt, team, group" />
<glyph unicode="&#x49;" d="M0,368l 440,0 l0-80 L0,288 L0,368 z M0,488l 440,0 l0-80 L0,408 L0,488 z M0,248l 440,0 l0-80 L0,168 L0,248 z M0,128l 440,0 l0-80 L0,48 L0,128 z M 480,248l 80-120l 80,120L 480,248 z M 640,288
	l-80,120l-80-120L 640,288 z" data-tags="menu, options" />
<glyph unicode="&#x4a;" d="M 512,320L 128,320 c-17.664,0-32-14.336-32-32s 14.336-32, 32-32l 384,0 c 17.696,0, 32,14.336, 32,32S 529.696,320, 512,320z M 128,384l 384,0 c 17.696,0, 32,14.336, 32,32
		s-14.304,32-32,32L 128,448 C 110.336,448, 96,433.664, 96,416S 110.336,384, 128,384z M 512,192L 128,192 c-17.664,0-32-14.304-32-32s 14.336-32, 32-32l 384,0 c 17.696,0, 32,14.304, 32,32
		S 529.696,192, 512,192z" data-tags="list, menu, options, lines" />
<glyph unicode="&#x4b;" d="M0,328l0-120 l 640,0 l0,120 L0,328 z M0,88l0-120 l 640,0 l0,120 L0,88 z M0,568l0-120 l 640,0 L 640,568 L0,568 z" data-tags="list, lines, menu" />
<glyph unicode="&#xf04a;" d="M 320-32q-86.875,0 -160.625,42.813t-116.563,116.563t-42.813,160.625t 42.813,160.625t 116.563,116.563t 160.625,42.813t 160.625-42.813t 116.563-116.563t 42.813-160.625t-42.813-160.625t-116.563-116.563t-160.625-42.813zM 320,88q 16.875,0 28.438,11.563t 11.563,28.125t-11.875,28.438t-28.125,11.875t-28.125-11.875t-11.875-28.438t 11.563-28.125t 28.438-11.563zM 320,488
q-33.125,0 -56.563-23.438t-23.438-56.563l 40-160q0-16.875 11.875-28.438t 28.125-11.563t 28.125,11.563t 11.875,28.438l 40,160q0,33.125 -23.438,56.563t-56.563,23.438z" data-tags="error" />
<glyph unicode="&#xe000;" d="M 530,68l-60,0 c-5.52,0-10,4.48-10,10s 4.48,10, 10,10L 520,88 l0,50 
	c0,5.52, 4.48,10, 10,10c 5.5,0, 10-4.48, 10-10l0-60 C 540,72.48, 535.5,68, 530,68z M 530,188c-5.52,0-10,4.48-10,10l0,60 
	c0,5.52, 4.48,10, 10,10c 5.5,0, 10-4.48, 10-10l0-60 C 540,192.48, 535.5,188, 530,188z M 530,308c-5.52,0-10,4.48-10,10l0,60 
	c0,5.52, 4.48,10, 10,10c 5.5,0, 10-4.48, 10-10l0-60 C 540,312.48, 535.5,308, 530,308z M 530,428C 524.48,428, 520,432.48, 520,438L 520,488 l-50,0 
	C 464.48,488, 460,492.48, 460,498S 464.48,508, 470,508l 60,0 C 535.5,508, 540,503.52, 540,498l0-60 C 540,432.48, 535.5,428, 530,428z M 410,68l-60,0 
	c-5.52,0-10,4.48-10,10s 4.48,10, 10,10l 60,0 c 5.5,0, 10-4.48, 10-10S 415.5,68, 410,68z M 410,488l-60,0 
	C 344.48,488, 340,492.48, 340,498S 344.48,508, 350,508l 60,0 C 415.5,508, 420,503.52, 420,498S 415.5,488, 410,488z M 290,488l-60,0 C 224.48,488, 220,492.48, 220,498
	S 224.48,508, 230,508l 60,0 C 295.5,508, 300,503.52, 300,498S 295.5,488, 290,488z M 170,68l-60,0 C 104.48,68, 100,72.48, 100,78l0,60 C 100,143.52, 104.48,148, 110,148
	C 115.52,148, 120,143.52, 120,138L 120,88 l 50,0 C 175.52,88, 180,83.52, 180,78S 175.52,68, 170,68z M 170,488L 120,488 l0-50 C 120,432.48, 115.52,428, 110,428
	C 104.48,428, 100,432.48, 100,438l0,60 C 100,503.52, 104.48,508, 110,508l 60,0 C 175.52,508, 180,503.52, 180,498S 175.52,488, 170,488z M 110,388C 115.52,388, 120,383.52, 120,378l0-60 
	C 120,312.48, 115.52,308, 110,308C 104.48,308, 100,312.48, 100,318l0,60 C 100,383.52, 104.48,388, 110,388z M 110,268C 115.52,268, 120,263.52, 120,258l0-60 
	C 120,192.48, 115.52,188, 110,188C 104.48,188, 100,192.48, 100,198l0,60 C 100,263.52, 104.48,268, 110,268z M 414.72,213.54l-20.28-20.28
	c-3.72-3.74-9.76-3.74-13.5,0l-57.4,57.4l-57.4-57.4c-3.74-3.74-9.76-3.74-13.5,0l-20.26,20.28
	c-3.74,3.74-3.74,9.76,0,13.5l 57.42,57.4l-57.42,57.4c-3.74,3.72-3.74,9.76,0,13.5l 20.26,20.26
	c 3.74,3.74, 9.76,3.74, 13.5,0l 57.4-57.4l 57.4,57.4c 3.74,3.74, 9.78,3.74, 13.5,0l 20.28-20.26
	c 3.72-3.74, 3.72-9.78,0-13.5l-57.42-57.4l 57.42-57.4C 418.44,223.32, 418.44,217.28, 414.72,213.54z M 230,88l 60,0 
	c 5.5,0, 10-4.48, 10-10S 295.5,68, 290,68l-60,0 c-5.52,0-10,4.48-10,10S 224.48,88, 230,88z" data-tags="error, cancel, close, partially checked" />
<glyph unicode="&#xe001;" d="M 624.384,32.576L 339.328,532.768C 335.392,539.68, 328,543.936, 320,543.936c-8,0-15.36-4.256-19.328-11.168L 15.648,32.576
		c-3.872-6.784-3.808-15.072, 0.16-21.792s 11.264-10.848, 19.136-10.848l 570.080,0 c 7.808,0, 15.136,4.128, 19.136,10.848
		C 628.128,17.504, 628.192,25.792, 624.384,32.576z M 355.2,63.936L 284.8,63.936 l0,64 l 70.4,0 L 355.2,63.936 z M 355.2,175.936L 284.8,175.936 l0,192 l 70.4,0 L 355.2,175.936 z" data-tags="warning, alert, exclamation" />
<glyph unicode="&#xe002;" d="M 530,68l-60,0 c-5.52,0-10,4.48-10,10s 4.48,10, 10,10L 520,88 l0,50 
	c0,5.52, 4.48,10, 10,10c 5.5,0, 10-4.48, 10-10l0-60 C 540,72.48, 535.5,68, 530,68z M 530,188c-5.52,0-10,4.48-10,10l0,60 
	c0,5.52, 4.48,10, 10,10c 5.5,0, 10-4.48, 10-10l0-60 C 540,192.48, 535.5,188, 530,188z M 530,308c-5.52,0-10,4.48-10,10l0,60 
	c0,5.52, 4.48,10, 10,10c 5.5,0, 10-4.48, 10-10l0-60 C 540,312.48, 535.5,308, 530,308z M 530,428C 524.48,428, 520,432.48, 520,438L 520,488 l-50,0 
	C 464.48,488, 460,492.48, 460,498S 464.48,508, 470,508l 60,0 C 535.5,508, 540,503.52, 540,498l0-60 C 540,432.48, 535.5,428, 530,428z M 410,68l-60,0 
	c-5.52,0-10,4.48-10,10s 4.48,10, 10,10l 60,0 c 5.5,0, 10-4.48, 10-10S 415.5,68, 410,68z M 410,488l-60,0 
	C 344.48,488, 340,492.48, 340,498S 344.48,508, 350,508l 60,0 C 415.5,508, 420,503.52, 420,498S 415.5,488, 410,488z M 398.76,308c 11.040,0, 20-8.94, 20-20
	c0-11.040-8.96-20-20-20l-60,0 l0-60 c0-11.040-8.96-20-20-20c-11.060,0-20,8.96-20,20l0,60 l-60,0 c-11.040,0-20,8.96-20,20c0,11.060, 8.94,20, 20,20l 60,0 l0,60 
	c0,11.060, 8.94,20, 20,20c 11.040,0, 20-8.94, 20-20l0-60 L 398.76,308 z M 290,488l-60,0 C 224.48,488, 220,492.48, 220,498S 224.48,508, 230,508l 60,0 
	C 295.5,508, 300,503.52, 300,498S 295.5,488, 290,488z M 170,68l-60,0 C 104.48,68, 100,72.48, 100,78l0,60 C 100,143.52, 104.48,148, 110,148
	C 115.52,148, 120,143.52, 120,138L 120,88 l 50,0 C 175.52,88, 180,83.52, 180,78S 175.52,68, 170,68z M 170,488L 120,488 l0-50 C 120,432.48, 115.52,428, 110,428
	C 104.48,428, 100,432.48, 100,438l0,60 C 100,503.52, 104.48,508, 110,508l 60,0 C 175.52,508, 180,503.52, 180,498S 175.52,488, 170,488z M 110,388C 115.52,388, 120,383.52, 120,378l0-60 
	C 120,312.48, 115.52,308, 110,308C 104.48,308, 100,312.48, 100,318l0,60 C 100,383.52, 104.48,388, 110,388z M 110,268C 115.52,268, 120,263.52, 120,258l0-60 
	C 120,192.48, 115.52,188, 110,188C 104.48,188, 100,192.48, 100,198l0,60 C 100,263.52, 104.48,268, 110,268z M 230,88l 60,0 c 5.5,0, 10-4.48, 10-10
	S 295.5,68, 290,68l-60,0 c-5.52,0-10,4.48-10,10S 224.48,88, 230,88z" data-tags="add, plus" />
<glyph unicode="&#xe003;" d="M 530,68l-60,0 c-5.52,0-10,4.48-10,10s 4.48,10, 10,10L 520,88 l0,50 
	c0,5.52, 4.48,10, 10,10c 5.5,0, 10-4.48, 10-10l0-60 C 540,72.48, 535.5,68, 530,68z M 530,188c-5.52,0-10,4.48-10,10l0,60 
	c0,5.52, 4.48,10, 10,10c 5.5,0, 10-4.48, 10-10l0-60 C 540,192.48, 535.5,188, 530,188z M 530,308c-5.52,0-10,4.48-10,10l0,60 
	c0,5.52, 4.48,10, 10,10c 5.5,0, 10-4.48, 10-10l0-60 C 540,312.48, 535.5,308, 530,308z M 530,428C 524.48,428, 520,432.48, 520,438L 520,488 l-50,0 
	C 464.48,488, 460,492.48, 460,498S 464.48,508, 470,508l 60,0 C 535.5,508, 540,503.52, 540,498l0-60 C 540,432.48, 535.5,428, 530,428z M 293.32,186.94
	c-3.68-3.7-9.66-3.7-13.36,0l-2.96,2.96l0,0l-3.16,3.16l-13.92,13.92c-0.040,0.060-0.020,0.14-0.060,0.18L 196.1,271.4
	c-3.7,3.68-3.7,9.66,0,13.36l 20.040,20.060c 3.7,3.7, 9.68,3.7, 13.38,0l 57.2-57.62l 120.28,120.26
	c 3.68,3.7, 9.66,3.7, 13.36,0l 20.040-20.060c 3.72-3.7, 3.72-9.68,0-13.38L 293.32,186.94z M 410,488l-60,0 C 344.48,488, 340,492.48, 340,498
	S 344.48,508, 350,508l 60,0 C 415.5,508, 420,503.52, 420,498S 415.5,488, 410,488z M 290,488l-60,0 C 224.48,488, 220,492.48, 220,498S 224.48,508, 230,508l 60,0 
	C 295.5,508, 300,503.52, 300,498S 295.5,488, 290,488z M 170,68l-60,0 C 104.48,68, 100,72.48, 100,78l0,60 C 100,143.52, 104.48,148, 110,148
	C 115.52,148, 120,143.52, 120,138L 120,88 l 50,0 C 175.52,88, 180,83.52, 180,78S 175.52,68, 170,68z M 170,488L 120,488 l0-50 C 120,432.48, 115.52,428, 110,428
	C 104.48,428, 100,432.48, 100,438l0,60 C 100,503.52, 104.48,508, 110,508l 60,0 C 175.52,508, 180,503.52, 180,498S 175.52,488, 170,488z M 110,388C 115.52,388, 120,383.52, 120,378l0-60 
	C 120,312.48, 115.52,308, 110,308C 104.48,308, 100,312.48, 100,318l0,60 C 100,383.52, 104.48,388, 110,388z M 110,268C 115.52,268, 120,263.52, 120,258l0-60 
	C 120,192.48, 115.52,188, 110,188C 104.48,188, 100,192.48, 100,198l0,60 C 100,263.52, 104.48,268, 110,268z M 230,88l 60,0 c 5.5,0, 10-4.48, 10-10
	S 295.5,68, 290,68l-60,0 c-5.52,0-10,4.48-10,10S 224.48,88, 230,88z M 350,88l 60,0 c 5.5,0, 10-4.48, 10-10S 415.5,68, 410,68l-60,0 
	c-5.52,0-10,4.48-10,10S 344.48,88, 350,88z" data-tags="checked, checkmark, tick, checkbox" />
<glyph unicode="&#xe004;" d="M 170,508l-60,0 C 104.48,508, 100,503.52, 100,498l0-60 C 100,432.48, 104.48,428, 110,428C 115.52,428, 120,432.48, 120,438
			L 120,488 l 50,0 C 175.52,488, 180,492.48, 180,498S 175.52,508, 170,508z M 230,488l 60,0 C 295.5,488, 300,492.48, 300,498S 295.5,508, 290,508l-60,0 C 224.48,508, 220,503.52, 220,498
			S 224.48,488, 230,488z M 410,508l-60,0 C 344.48,508, 340,503.52, 340,498S 344.48,488, 350,488l 60,0 C 415.5,488, 420,492.48, 420,498S 415.5,508, 410,508z M 530,508l-60,0 
			C 464.48,508, 460,503.52, 460,498S 464.48,488, 470,488L 520,488 l0-50 C 520,432.48, 524.48,428, 530,428C 535.5,428, 540,432.48, 540,438l0,60 
			C 540,503.52, 535.5,508, 530,508z M 530,388c-5.52,0-10-4.48-10-10l0-60 c0-5.52, 4.48-10, 10-10c 5.5,0, 10,4.48, 10,10l0,60 
			C 540,383.52, 535.5,388, 530,388z M 530,268c-5.52,0-10-4.48-10-10l0-60 c0-5.52, 4.48-10, 10-10c 5.5,0, 10,4.48, 10,10l0,60 
			C 540,263.52, 535.5,268, 530,268z M 530,148c-5.52,0-10-4.48-10-10L 520,88 l-50,0 c-5.52,0-10-4.48-10-10s 4.48-10, 10-10l 60,0 
			c 5.5,0, 10,4.48, 10,10l0,60 C 540,143.52, 535.5,148, 530,148z M 410,88l-60,0 c-5.52,0-10-4.48-10-10s 4.48-10, 10-10l 60,0 
			c 5.5,0, 10,4.48, 10,10S 415.5,88, 410,88z M 290,88l-60,0 c-5.52,0-10-4.48-10-10s 4.48-10, 10-10l 60,0 
			c 5.5,0, 10,4.48, 10,10S 295.5,88, 290,88z M 170,88L 120,88 l0,50 C 120,143.52, 115.52,148, 110,148C 104.48,148, 100,143.52, 100,138l0-60 
			C 100,72.48, 104.48,68, 110,68l 60,0 C 175.52,68, 180,72.48, 180,78S 175.52,88, 170,88z M 110,188C 115.52,188, 120,192.48, 120,198l0,60 
			C 120,263.52, 115.52,268, 110,268C 104.48,268, 100,263.52, 100,258l0-60 C 100,192.48, 104.48,188, 110,188z M 110,308C 115.52,308, 120,312.48, 120,318l0,60 
			C 120,383.52, 115.52,388, 110,388C 104.48,388, 100,383.52, 100,378l0-60 C 100,312.48, 104.48,308, 110,308z M 238.76,268l 160,0 c 11.060,0, 20,8.96, 20,20
			c0,11.060-8.94,20-20,20l-160,0 c-11.060,0-20-8.94-20-20C 218.76,276.96, 227.7,268, 238.76,268z" data-tags="minus, remove, delete" />
<glyph unicode="&#x20;" horiz-adv-x="320" />
</font>
</defs>
</svg>
